<?xml version="1.0" standalone="no"?>
<!DOCTYPE svg PUBLIC "-//W3C//DTD SVG 20010904//EN"
 "http://www.w3.org/TR/2001/REC-SVG-20010904/DTD/svg10.dtd">
<svg version="1.0" xmlns="http://www.w3.org/2000/svg"
 width="408.000000pt" height="612.000000pt" viewBox="0 0 408.000000 612.000000"
 preserveAspectRatio="xMidYMid meet">
<metadata>
Created by potrace 1.10, written by Peter Selinger 2001-2011
</metadata>
<g transform="translate(0.000000,612.000000) scale(0.100000,-0.100000)"
fill="#000000" stroke="none">
<path d="M670 3910 l0 -740 165 0 166 0 -7 493 c-4 270 -4 490 -1 487 2 -3 86
-207 185 -455 99 -247 188 -467 196 -488 l17 -38 112 3 112 3 182 455 c100
250 190 471 198 490 14 32 15 -6 10 -457 l-6 -493 166 0 165 0 0 740 0 740
-221 -2 -221 -3 -145 -345 c-79 -190 -165 -396 -190 -457 -25 -62 -49 -113
-53 -113 -6 0 -85 187 -334 790 l-51 125 -223 3 -222 2 0 -740z"/>
</g>
</svg>
